<svg xmlns="http://www.w3.org/2000/svg" width="45.061" height="55" viewBox="0 0 45.061 55"><g transform="translate(-36.24 -15.66)"><g transform="translate(36.24 15.66)"><path d="M73.845,15.817A64.685,64.685,0,0,1,58.789,17.43h-.134a65.511,65.511,0,0,1-14.972-1.559l-.617-.151L38.6,21.3l.4.608a8.705,8.705,0,0,1,1.061,5.375c-.138,1.231-.664,3.408-1.272,5.929C37.654,37.93,36.24,43.8,36.24,47.944c0,7.55,3.083,11.307,12.221,14.888l.94.364c3.525,1.365,7.333,2.553,8.586,5.448a7.589,7.589,0,0,1,.8,2.016,7.992,7.992,0,0,1,.809-2.016c1.77-3.169,5.06-4.083,8.586-5.448l.94-.366c9.185-3.6,12.145-7.2,12.184-14.837.022-3.988-1.386-9.926-2.516-14.7-.608-2.563-1.132-4.78-1.272-6.013a8.746,8.746,0,0,1,1.061-5.375l.4-.6-.448-.569-4.06-5.077Z" transform="translate(-36.24 -15.66)" fill="#febd11"/></g><g transform="translate(37.236 16.781)"><path d="M80.151,31.475a9.6,9.6,0,0,1,1.223-6.039L77.712,20.86a65.47,65.47,0,0,1-15.3,1.643h-.134a66.164,66.164,0,0,1-15.209-1.589l-3.616,4.525a9.591,9.591,0,0,1,1.223,6.039C44.271,35.1,40.86,45.756,40.86,52.023c0,6.884,2.6,10.441,11.589,13.963,4.2,1.645,9.905,3.615,9.966,6.72.058-3.107,5.77-5.077,9.966-6.72,8.985-3.521,11.516-6.84,11.552-13.916C83.963,46.047,80.558,35.1,80.151,31.475Z" transform="translate(-40.86 -20.86)" fill="#e03127"/></g><g transform="translate(37.236 16.837)"><g transform="translate(0 0)"><path d="M62.415,22.709h-.134A66.164,66.164,0,0,1,47.072,21.12l-3.616,4.523a9.591,9.591,0,0,1,1.223,6.039C44.271,35.3,40.86,45.96,40.86,52.227c0,6.884,2.6,10.441,11.589,13.963,4.2,1.645,9.905,3.615,9.966,6.72v-50.2Z" transform="translate(-40.86 -21.12)"/></g></g><g transform="translate(40.802 47.756)"><path d="M59.584,165.245a1.193,1.193,0,0,0-.821-.33c-.3,0-.675.114-.675.476,0,.718,1.8.707,1.8,1.675a1.273,1.273,0,0,1-1.4,1.082,2.7,2.7,0,0,1-.936-.157l-.151-.653a1.805,1.805,0,0,0,1.145.433c.3,0,.748-.177.748-.543,0-.815-1.8-.668-1.8-1.779,0-.66.675-.91,1.313-.91a2.647,2.647,0,0,1,.778.114Z" transform="translate(-57.4 -164.54)" fill="#fff"/></g><g transform="translate(43.142 47.804)"><path d="M69.884,167.558c0,.3,0,.5.272.664v.015H69.119v-.015c.261-.1.231-.481.231-.716v-2.333h-.461a.907.907,0,0,0-.623.209H68.25l.183-.623h.015a.873.873,0,0,0,.2.037H70.73a.576.576,0,0,0,.241-.037h.015l-.168.623H70.8c-.069-.183-.278-.209-.451-.209h-.47Z" transform="translate(-68.25 -164.76)" fill="#fff"/></g><g transform="translate(45.326 47.84)"><path d="M79.51,167.079l-.272.737c-.11.293-.147.444.106.539v.015H78.38v-.015a1.168,1.168,0,0,0,.507-.742l.873-2.182c.073-.188.172-.407-.078-.487v-.015h.826l1.089,2.684a1.219,1.219,0,0,0,.513.742v.015H81.036v-.015c.257-.114.216-.172.073-.539l-.282-.737Zm.653-1.705-.517,1.317h1.031Z" transform="translate(-78.38 -164.93)" fill="#fff"/></g><g transform="translate(49.226 47.84)"><path d="M96.7,165.646c0-.241.037-.623-.231-.7v-.015h1.283c1.192,0,1.936.649,1.936,1.69a1.776,1.776,0,0,1-1.962,1.753H96.472v-.015c.261-.179.231-.429.231-.737v-1.975Zm.535,2.313a1.879,1.879,0,0,0,.382.037,1.311,1.311,0,0,0,1.475-1.313,1.243,1.243,0,0,0-1.386-1.375,2.17,2.17,0,0,0-.47.056Z" transform="translate(-96.47 -164.93)" fill="#fff"/></g><g transform="translate(52.685 47.814)"><path d="M113.28,167.837l.664.063a1.316,1.316,0,0,0,.968-.308h.015l-.235.686H112.51v-.015c.267-.095.235-.481.235-.716v-1.973c0-.241.032-.623-.235-.722v-.015h1.673a.532.532,0,0,0,.246-.026h.015v.612h-.015a.735.735,0,0,0-.617-.209,2.879,2.879,0,0,0-.535.037v.972h.623a.521.521,0,0,0,.231-.032h.015v.554h-.015c-.084-.151-.3-.147-.466-.147h-.388v1.24Z" transform="translate(-112.51 -164.81)" fill="#fff"/></g><g transform="translate(56.592 47.84)"><path d="M131.874,164.93c.7,0,1.082.366,1.082.843a1.022,1.022,0,0,1-.832.921l.752.946a3.731,3.731,0,0,0,.847.733h-.481a.686.686,0,0,1-.606-.261l-.638-.789-.481-.737c.418-.063.906-.257.906-.748a.6.6,0,0,0-.675-.58,2.851,2.851,0,0,0-.356.041v2.343c0,.241-.032.623.235.716v.015h-1v-.015c.267-.095.231-.481.231-.716v-1.973c0-.241.037-.623-.231-.722v-.015h1.244Z" transform="translate(-130.63 -164.93)" fill="#fff"/></g><g transform="translate(59.511 47.814)"><path d="M144.938,167.837l.664.063a1.316,1.316,0,0,0,.968-.308h.017l-.235.686H144.17v-.015c.267-.095.235-.481.235-.716v-1.973c0-.241.032-.623-.235-.722v-.015h1.675a.536.536,0,0,0,.246-.026h.015v.612h-.015a.736.736,0,0,0-.617-.209,2.879,2.879,0,0,0-.535.037v.972h.623a.521.521,0,0,0,.231-.032h.015v.554h-.015c-.084-.151-.3-.147-.466-.147h-.388v1.24Z" transform="translate(-144.17 -164.81)" fill="#fff"/></g><g transform="translate(62.049 47.838)"><path d="M156.6,167.684c0,.293,0,.5.272.664v.015h-.927v-.015c.278-.162.278-.371.278-.664V165.6c0-.293,0-.5-.272-.66v-.015h.763v0a.373.373,0,0,0,.078.132l.073.1,1.915,2.417v-1.983c0-.293,0-.5-.272-.66v-.015h.921v.017c-.272.157-.272.367-.272.66v2.934a1.439,1.439,0,0,1-.763-.6l-1.794-2.274Z" transform="translate(-155.94 -164.92)" fill="#fff"/></g><g transform="translate(65.684 47.838)"><path d="M173.455,167.684c0,.293,0,.5.272.664v.015H172.8v-.015c.278-.162.278-.371.278-.664V165.6c0-.293,0-.5-.272-.66v-.015h.763v0a.344.344,0,0,0,.078.132l.073.1,1.915,2.417v-1.983c0-.293,0-.5-.272-.66v-.015h.921v.017c-.272.157-.272.367-.272.66v2.934a1.439,1.439,0,0,1-.763-.6l-1.794-2.274Z" transform="translate(-172.8 -164.92)" fill="#fff"/></g><g transform="translate(69.175 47.84)"><path d="M190.12,167.079l-.272.737c-.11.293-.147.444.1.539v.015h-.962v-.015a1.168,1.168,0,0,0,.507-.742l.873-2.182c.073-.188.172-.407-.08-.487v-.015h.826l1.089,2.684a1.219,1.219,0,0,0,.513.742v.015h-1.072v-.015c.257-.114.213-.172.073-.539l-.282-.737Zm.653-1.705-.517,1.317h1.031Z" transform="translate(-188.99 -164.93)" fill="#fff"/></g><g transform="translate(73.084 47.84)"><path d="M207.351,165.667c0-.241.037-.623-.231-.722v-.015h.994v.015c-.261.1-.231.487-.231.722v1.973c0,.235-.03.617.231.716v.015h-.994v-.015c.261-.095.231-.481.231-.716Z" transform="translate(-207.12 -164.93)" fill="#fff"/></g><g transform="translate(74.172 47.756)"><path d="M214.354,165.245a1.193,1.193,0,0,0-.821-.33c-.3,0-.675.114-.675.476,0,.718,1.8.707,1.8,1.675a1.273,1.273,0,0,1-1.4,1.082,2.7,2.7,0,0,1-.936-.157l-.151-.653a1.805,1.805,0,0,0,1.145.433c.3,0,.748-.177.748-.543,0-.815-1.8-.668-1.8-1.779,0-.66.675-.91,1.313-.91a2.672,2.672,0,0,1,.78.114v.591Z" transform="translate(-212.17 -164.54)" fill="#fff"/></g><g transform="translate(46.298 53.215)"><path d="M83.319,191.388c0,.132-.024.345.123.4v.009H82.89v-.009c.149-.052.132-.269.132-.4v-1.1c0-.134.017-.347-.132-.4v-.009h.936a.288.288,0,0,0,.138-.015h.009v.338h-.009a.422.422,0,0,0-.345-.114,1.487,1.487,0,0,0-.3.022v.543h.351a.294.294,0,0,0,.125-.017h.009v.31H83.8c-.047-.088-.17-.082-.261-.082h-.216v.528Z" transform="translate(-82.89 -189.86)" fill="#fff"/></g><g transform="translate(47.695 53.18)"><path d="M91.513,190.69a1.043,1.043,0,0,1-1.076,1.028A1.024,1.024,0,0,1,89.37,190.7a1.038,1.038,0,0,1,1.1-1A1.01,1.01,0,0,1,91.513,190.69Zm-1.811-.013a.792.792,0,0,0,.748.83.71.71,0,0,0,.729-.761.776.776,0,0,0-.733-.839A.725.725,0,0,0,89.7,190.677Z" transform="translate(-89.37 -189.698)" fill="#fff"/></g><g transform="translate(50.179 53.18)"><path d="M103.033,190.69a1.043,1.043,0,0,1-1.076,1.028,1.024,1.024,0,0,1-1.067-1.015,1.038,1.038,0,0,1,1.1-1A1.009,1.009,0,0,1,103.033,190.69Zm-1.809-.013a.792.792,0,0,0,.748.83.71.71,0,0,0,.729-.761.776.776,0,0,0-.733-.839A.723.723,0,0,0,101.224,190.677Z" transform="translate(-100.89 -189.698)" fill="#fff"/></g><g transform="translate(52.491 53.206)"><path d="M112.522,191.387c0,.166,0,.28.151.371v.009h-.58v-.009c.147-.056.129-.27.129-.4v-1.3h-.257a.51.51,0,0,0-.347.116h-.009l.1-.349h.009a.47.47,0,0,0,.112.022H113a.291.291,0,0,0,.134-.022h.009l-.093.349h-.009c-.039-.1-.155-.116-.252-.116h-.263Z" transform="translate(-111.61 -189.82)" fill="#fff"/></g><g transform="translate(54.466 53.23)"><path d="M120.9,190.34c0-.132.019-.345-.129-.4v-.009h.692c.386,0,.612.164.612.425a.407.407,0,0,1-.293.379.537.537,0,0,1,.476.517.593.593,0,0,1-.351.513,1.473,1.473,0,0,1-.655.091h-.483v-.009c.147-.056.129-.269.129-.4v-1.1Zm.552,1.3c.239.024.483-.088.483-.367s-.274-.405-.533-.392l-.2.011v.722Zm-.157-.94c.19,0,.461-.065.461-.3a.309.309,0,0,0-.362-.289l-.2.019v.573Z" transform="translate(-120.77 -189.93)" fill="#fff"/></g><g transform="translate(56.298 53.228)"><path d="M129.9,191.123l-.153.412c-.06.164-.082.248.058.3v.009h-.537v-.009c.17-.084.22-.248.285-.416l.487-1.22c.041-.106.1-.229-.043-.272v-.009h.461l.608,1.5a.694.694,0,0,0,.287.416v.009h-.6v-.009c.142-.065.121-.1.041-.3l-.157-.412Zm.367-.953-.289.737h.576Z" transform="translate(-129.27 -189.92)" fill="#fff"/></g><g transform="translate(58.72 53.23)"><path d="M141.328,191.644a.725.725,0,0,0,.517-.179h.009l-.153.388h-1.2v-.009c.149-.052.132-.269.132-.4v-1.1c0-.134.017-.347-.132-.4v-.009h.558v.009c-.149.056-.129.272-.129.4v1.274Z" transform="translate(-140.5 -189.93)" fill="#fff"/></g><g transform="translate(60.444 53.23)"><path d="M149.328,191.644a.725.725,0,0,0,.517-.179h.009l-.153.388h-1.2v-.009c.149-.052.132-.269.132-.4v-1.1c0-.134.017-.347-.132-.4v-.009h.558v.009c-.149.056-.129.272-.129.4v1.274Z" transform="translate(-148.5 -189.93)" fill="#fff"/></g><g transform="translate(63.92 53.185)"><path d="M166.179,190.127a1.03,1.03,0,0,0-.541-.166.671.671,0,0,0-.683.72.767.767,0,0,0,.742.813,1.31,1.31,0,0,0,.623-.183h.009l-.149.338a1.033,1.033,0,0,1-.442.088.989.989,0,0,1-1.117-1.011.968.968,0,0,1,1.026-1.007,2.349,2.349,0,0,1,.533.073Z" transform="translate(-164.62 -189.72)" fill="#fff"/></g><g transform="translate(66.154 53.23)"><path d="M175.806,191.644a.725.725,0,0,0,.517-.179h.009l-.151.388h-1.2v-.009c.149-.052.132-.269.132-.4v-1.1c0-.134.017-.347-.132-.4v-.009h.558v.009c-.149.056-.127.272-.127.4v1.274Z" transform="translate(-174.98 -189.93)" fill="#fff"/></g><g transform="translate(67.818 53.23)"><path d="M184.082,191.661a.8.8,0,0,1-1.1.035.766.766,0,0,1-.149-.576v-.78c0-.132.019-.345-.129-.4v-.009h.556v.009c-.147.056-.129.269-.129.4v.78c0,.388.164.569.466.569a.516.516,0,0,0,.427-.2.384.384,0,0,0,.06-.265v-.88c0-.132.017-.345-.129-.4v-.009h.556l0,.009c-.149.056-.132.269-.132.4v1.1c0,.132-.017.345.132.4v.009h-.429v-.192Z" transform="translate(-182.7 -189.93)" fill="#fff"/></g><g transform="translate(70.054 53.23)"><path d="M193.2,190.34c0-.132.019-.345-.129-.4v-.009h.692c.386,0,.612.164.612.425a.407.407,0,0,1-.293.379.537.537,0,0,1,.477.517.593.593,0,0,1-.351.513,1.473,1.473,0,0,1-.655.091h-.483v-.009c.147-.056.129-.269.129-.4v-1.1Zm.554,1.3c.239.024.483-.088.483-.367s-.274-.405-.533-.392l-.2.011v.722Zm-.16-.94c.19,0,.461-.065.461-.3a.309.309,0,0,0-.362-.289l-.2.019v.573Z" transform="translate(-193.07 -189.93)" fill="#fff"/></g><g transform="translate(55.067 57.511)"><path d="M123.56,210.253a1.077,1.077,0,0,0,.567-.464h.006v1.492c0,.151-.011.274.134.366v.009h-.556v-.009c.164-.08.157-.2.157-.366V210.26h-.308Z" transform="translate(-123.56 -209.79)" fill="#febd11"/></g><g transform="translate(56.857 57.593)"><path d="M132.158,211.843a1.007,1.007,0,0,0,.811-.918.51.51,0,0,0-.455-.567.382.382,0,0,0-.386.4.4.4,0,0,0,.4.431.567.567,0,0,0,.28-.084l-.181.22a.6.6,0,0,1-.213.039.541.541,0,0,1-.556-.55.651.651,0,0,1,.688-.642.685.685,0,0,1,.688.724,1.036,1.036,0,0,1-.4.787,1.622,1.622,0,0,1-.813.326Z" transform="translate(-131.86 -210.17)" fill="#febd11"/></g><g transform="translate(59.377 57.596)"><path d="M143.55,211.1c0-.489.241-.918.707-.918.489,0,.7.474.7.9s-.213.923-.709.923C143.83,212,143.55,211.588,143.55,211.1Zm.282-.028c0,.267.086.729.429.729.263,0,.41-.323.41-.7s-.16-.711-.427-.718C143.912,210.385,143.832,210.814,143.832,211.07Z" transform="translate(-143.55 -210.18)" fill="#febd11"/></g><g transform="translate(61.893 57.511)"><path d="M155.22,210.253a1.077,1.077,0,0,0,.567-.464h.009v1.492c0,.151-.011.274.132.366v.009h-.556v-.009c.164-.08.157-.2.157-.366V210.26h-.306v-.006Z" transform="translate(-155.22 -209.79)" fill="#febd11"/></g><g transform="translate(47.594 21.972)"><path d="M105.8,68.161l6.076-6.2v-9.9l-5.914-6H95.954l-5.914,6v9.9l6.076,6.2Z" transform="translate(-89.794 -45.826)" fill="#fff"/><path d="M95.118,67.518,88.9,61.176V51.08l6.059-6.14H105.17l6.057,6.138v10.1l-6.145,6.267-.071.073H95.118Zm9.789-.244v0Zm-15.52-16v9.7l5.936,6.054h9.483l5.936-6.054v-9.7l-5.776-5.851h-9.8l-5.774,5.851Z" transform="translate(-88.9 -44.94)" fill="#fff"/><g transform="translate(0.246 0.244)"><path d="M100.823,46.07H95.954l-5.914,6v9.9l6.076,6.2h4.707Z" transform="translate(-90.04 -46.07)" fill="#e03127"/></g><g transform="translate(11.298 0.244)"><path d="M141.3,46.07h4.871l5.914,6v9.9l-6.076,6.2H141.3Z" transform="translate(-141.3 -46.07)"/></g><g transform="translate(8.868 5.439)"><path d="M132.32,74.749a2.29,2.29,0,1,0-2.29-2.29A2.29,2.29,0,0,0,132.32,74.749Z" transform="translate(-130.03 -70.17)" fill="#fff"/></g><g transform="translate(11.565 2.074)"><path d="M142.777,57.55l.06-.8a3.544,3.544,0,0,1,2.234.8s.845-2.475,2.031-3c0,0,.08.321.16.343s.362-.3.444-.282-.1,1.106,2.415,2.052l-.14.664S146.9,57.1,146.9,58.926c0,.826,1.188,2.253,1.389,2.516a5.9,5.9,0,0,1,1.671,4.1,1.515,1.515,0,0,0,.464-1.227c0-.886-.524-2.656-.524-3.3s-.1-2.374,1.649-2.374v.884s-.593-.017-.664.765c-.06.664.8,3.581.4,4.687a3.133,3.133,0,0,1-1.147,1.77c-.645.5-2.7,2.132-.724,3.581l-1.831,3.32s-1.067.382-1.147.382-.3.041-.14-.14a4.876,4.876,0,0,0,1.57-2.917c0-1.429-2.072-1.871-2.072-4.023a3.059,3.059,0,0,1,1.248-2.294,2.428,2.428,0,0,0-.442-.7c-.222-.181-1.449-.905-1.63-1.347a4.987,4.987,0,0,1-2.173,1.046,2.183,2.183,0,0,1-.261-.724,2.74,2.74,0,0,0,2.367-2.833A2.708,2.708,0,0,0,142.777,57.55Z" transform="translate(-142.54 -54.56)" fill="#fff"/></g><g transform="translate(1.753 2.074)"><path d="M105.8,57.55l-.06-.8a3.544,3.544,0,0,0-2.234.8s-.845-2.475-2.031-3c0,0-.08.321-.162.343s-.362-.3-.442-.282.1,1.106-2.415,2.052l.14.664s3.079-.241,3.079,1.589c0,.826-1.188,2.253-1.389,2.516a5.92,5.92,0,0,0-1.671,4.1,1.515,1.515,0,0,1-.464-1.227c0-.886.524-2.656.524-3.3s.1-2.374-1.649-2.374v.884s.593-.017.664.765c.06.664-.8,3.581-.4,4.687a3.133,3.133,0,0,0,1.147,1.77c.645.5,2.7,2.132.724,3.581l1.831,3.32s1.067.382,1.147.382.3.041.14-.14a4.876,4.876,0,0,1-1.57-2.917c0-1.429,2.072-1.871,2.072-4.023a3.059,3.059,0,0,0-1.248-2.294,2.427,2.427,0,0,1,.442-.7c.222-.181,1.449-.905,1.63-1.347a4.987,4.987,0,0,0,2.173,1.046,2.182,2.182,0,0,0,.261-.724,2.74,2.74,0,0,1-2.367-2.833A2.708,2.708,0,0,1,105.8,57.55Z" transform="translate(-97.03 -54.56)" fill="#fff"/></g><g transform="translate(6.96 12.154)"><path d="M121.18,107.072l1.852,2.682,1.113.188s.188,0,.08-.162a18.407,18.407,0,0,1-1.475-1.973,1.11,1.11,0,0,1,.095-1.354c.5-.683,1.449-1.328,1.449-2.695a2.522,2.522,0,0,0-2.7-2.44c-.683.013-.132.427-.067.509a3.254,3.254,0,0,1,.658,1.636,2.74,2.74,0,0,1-.375,1.623c0,.229.349.267.349.845C122.159,106.6,121.18,107.072,121.18,107.072Z" transform="translate(-121.18 -101.317)" fill="#fff"/></g><g transform="translate(12.223 12.154)"><path d="M148.7,107.072l-1.85,2.682-1.115.188s-.188,0-.08-.162a18.7,18.7,0,0,0,1.477-1.973,1.11,1.11,0,0,0-.095-1.354c-.5-.683-1.449-1.328-1.449-2.695a2.522,2.522,0,0,1,2.7-2.44c.683.013.132.427.067.509a3.234,3.234,0,0,0-.658,1.636,2.74,2.74,0,0,0,.375,1.623c0,.229-.349.267-.349.845C147.725,106.6,148.7,107.072,148.7,107.072Z" transform="translate(-145.59 -101.317)" fill="#fff"/></g></g></g></svg>